{
  "accessors": [
    {
      "bufferView": 2,
      "componentType": 5126,
      "count": 1852,
      "max": [
        2.134676694869995,
        0.10896937549114227,
        0.739150881767273
      ],
      "min": [
        -1.4773199558258057,
        -0.10896956920623779,
        -0.2742651700973511
      ],
      "type": "VEC3"
    },
    {
      "bufferView": 2,
      "byteOffset": 22224,
      "componentType": 5126,
      "count": 1852,
      "max": [
        1.0,
        1.0,
        1.0
      ],
      "min": [
        -0.9999997019767761,
        -1.0,
        -1.0
      ],
      "type": "VEC3"
    },
    {
      "bufferView": 3,
      "componentType": 5126,
      "count": 1852,
      "max": [
        1.0,
        0.9999999403953552,
        0.9999997615814209,
        1.0
      ],
      "min": [
        -0.9999980330467224,
        -0.9999993443489075,
        -0.9999998211860657,
        1.0
      ],
      "type": "VEC4"
    },
    {
      "bufferView": 1,
      "componentType": 5126,
      "count": 1852,
      "max": [
        0.944725513458252,
        0.99951171875
      ],
      "min": [
        0.00048828125,
        0.00048828125
      ],
      "type": "VEC2"
    },
    {
      "bufferView": 1,
      "byteOffset": 14816,
      "componentType": 5126,
      "count": 1852,
      "max": [
        0.944725513458252,
        0.99951171875
      ],
      "min": [
        0.00048828125,
        0.00048828125
      ],
      "type": "VEC2"
    },
    {
      "bufferView": 1,
      "byteOffset": 29632,
      "componentType": 5126,
      "count": 1852,
      "max": [
        0.944725513458252,
        0.99951171875
      ],
      "min": [
        0.00048828125,
        0.00048828125
      ],
      "type": "VEC2"
    },
    {
      "bufferView": 0,
      "componentType": 5125,
      "count": 8418,
      "type": "SCALAR"
    },
    {
      "bufferView": 2,
      "byteOffset": 44448,
      "componentType": 5126,
      "count": 10661,
      "max": [
        3.377061128616333,
        0.11056222766637802,
        0.8029935359954834
      ],
      "min": [
        -1.5115554332733154,
        -0.20754095911979675,
        -0.6114542484283447
      ],
      "type": "VEC3"
    },
    {
      "bufferView": 2,
      "byteOffset": 172380,
      "componentType": 5126,
      "count": 10661,
      "max": [
        1.0,
        1.0,
        1.0
      ],
      "min": [
        -1.0,
        -1.0,
        -1.0
      ],
      "type": "VEC3"
    },
    {
      "bufferView": 3,
      "byteOffset": 29632,
      "componentType": 5126,
      "count": 10661,
      "max": [
        1.0,
        1.0,
        1.0,
        1.0
      ],
      "min": [
        -1.0,
        -1.0,
        -1.0,
        -1.0
      ],
      "type": "VEC4"
    },
    {
      "bufferView": 1,
      "byteOffset": 44448,
      "componentType": 5126,
      "count": 10661,
      "max": [
        0.99951171875,
        0.9816473722457886
      ],
      "min": [
        0.00048828125,
        0.00048828125
      ],
      "type": "VEC2"
    },
    {
      "bufferView": 1,
      "byteOffset": 129736,
      "componentType": 5126,
      "count": 10661,
      "max": [
        0.99951171875,
        0.9816473722457886
      ],
      "min": [
        0.00048828125,
        0.00048828125
      ],
      "type": "VEC2"
    },
    {
      "bufferView": 1,
      "byteOffset": 215024,
      "componentType": 5126,
      "count": 10661,
      "max": [
        0.99951171875,
        0.9816473722457886
      ],
      "min": [
        0.00048828125,
        0.00048828125
      ],
      "type": "VEC2"
    },
    {
      "bufferView": 0,
      "byteOffset": 33672,
      "componentType": 5125,
      "count": 35241,
      "type": "SCALAR"
    }
  ],
  "asset": {
    "extras": {
      "author": "_Alexandr (https://sketchfab.com/a_l_e_x_a_n_d_e_r)",
      "license": "CC-BY-4.0 (http://creativecommons.org/licenses/by/4.0/)",
      "source": "https://sketchfab.com/3d-models/ak-47-933b9c9665de40eba6b2f2e10d927ff4",
      "title": "Ak-47"
    },
    "generator": "Sketchfab-13.44.0",
    "version": "2.0"
  },
  "bufferViews": [
    {
      "buffer": 0,
      "byteLength": 174636,
      "name": "floatBufferViews",
      "target": 34963
    },
    {
      "buffer": 0,
      "byteLength": 300312,
      "byteOffset": 174636,
      "byteStride": 8,
      "name": "floatBufferViews",
      "target": 34962
    },
    {
      "buffer": 0,
      "byteLength": 300312,
      "byteOffset": 474948,
      "byteStride": 12,
      "name": "floatBufferViews",
      "target": 34962
    },
    {
      "buffer": 0,
      "byteLength": 200208,
      "byteOffset": 775260,
      "byteStride": 16,
      "name": "floatBufferViews",
      "target": 34962
    }
  ],
  "buffers": [
    {
      "byteLength": 975468,
      "uri": "scene.bin"
    }
  ],
  "images": [
    {
      "uri": "textures/Wood_ak-47_baseColor.png"
    },
    {
      "uri": "textures/Wood_ak-47_metallicRoughness.png"
    },
    {
      "uri": "textures/Wood_ak-47_normal.png"
    },
    {
      "uri": "textures/Metall_ak-47_baseColor.png"
    },
    {
      "uri": "textures/Metall_ak-47_metallicRoughness.png"
    },
    {
      "uri": "textures/Metall_ak-47_normal.png"
    }
  ],
  "materials": [
    {
      "doubleSided": true,
      "name": "Wood_ak-47",
      "normalTexture": {
        "index": 2
      },
      "occlusionTexture": {
        "index": 1
      },
      "pbrMetallicRoughness": {
        "baseColorTexture": {
          "index": 0
        },
        "metallicRoughnessTexture": {
          "index": 1
        }
      }
    },
    {
      "doubleSided": true,
      "name": "Metall_ak-47",
      "normalTexture": {
        "index": 5
      },
      "occlusionTexture": {
        "index": 4
      },
      "pbrMetallicRoughness": {
        "baseColorTexture": {
          "index": 3
        },
        "metallicRoughnessTexture": {
          "index": 4
        }
      }
    }
  ],
  "meshes": [
    {
      "name": "Ak-47_Wood_ak-47_0",
      "primitives": [
        {
          "attributes": {
            "NORMAL": 1,
            "POSITION": 0,
            "TANGENT": 2,
            "TEXCOORD_0": 3,
            "TEXCOORD_1": 4,
            "TEXCOORD_2": 5
          },
          "indices": 6,
          "material": 0,
          "mode": 4
        }
      ]
    },
    {
      "name": "Ak-47_Metall_ak-47_0",
      "primitives": [
        {
          "attributes": {
            "NORMAL": 8,
            "POSITION": 7,
            "TANGENT": 9,
            "TEXCOORD_0": 10,
            "TEXCOORD_1": 11,
            "TEXCOORD_2": 12
          },
          "indices": 13,
          "material": 1,
          "mode": 4
        }
      ]
    }
  ],
  "nodes": [
    {
      "children": [
        1
      ],
      "matrix": [
        1.0,
        0.0,
        0.0,
        0.0,
        0.0,
        2.220446049250313e-16,
        -1.0,
        0.0,
        0.0,
        1.0,
        2.220446049250313e-16,
        0.0,
        0.0,
        0.0,
        0.0,
        1.0
      ],
      "name": "Sketchfab_model"
    },
    {
      "children": [
        2
      ],
      "matrix": [
        0.009999999776482582,
        0.0,
        0.0,
        0.0,
        0.0,
        0.0,
        0.009999999776482582,
        0.0,
        0.0,
        -0.009999999776482582,
        0.0,
        0.0,
        0.0,
        0.0,
        0.0,
        1.0
      ],
      "name": "ak-47.fbx"
    },
    {
      "children": [
        3
      ],
      "name": "RootNode"
    },
    {
      "children": [
        4,
        5
      ],
      "matrix": [
        100.0,
        0.0,
        0.0,
        0.0,
        -0.0,
        -1.629206793918314e-05,
        -99.99999999999868,
        0.0,
        0.0,
        99.99999999999868,
        -1.629206793918314e-05,
        0.0,
        -90.6819839477539,
        -4.4990034103393555,
        -3.04796486716441e-07,
        1.0
      ],
      "name": "Ak-47"
    },
    {
      "mesh": 0,
      "name": "Ak-47_Wood_ak-47_0"
    },
    {
      "mesh": 1,
      "name": "Ak-47_Metall_ak-47_0"
    }
  ],
  "samplers": [
    {
      "magFilter": 9729,
      "minFilter": 9987,
      "wrapS": 10497,
      "wrapT": 10497
    }
  ],
  "scene": 0,
  "scenes": [
    {
      "name": "Sketchfab_Scene",
      "nodes": [
        0
      ]
    }
  ],
  "textures": [
    {
      "sampler": 0,
      "source": 0
    },
    {
      "sampler": 0,
      "source": 1
    },
    {
      "sampler": 0,
      "source": 2
    },
    {
      "sampler": 0,
      "source": 3
    },
    {
      "sampler": 0,
      "source": 4
    },
    {
      "sampler": 0,
      "source": 5
    }
  ]
}
